<?xml version="1.0" standalone="no"?><!DOCTYPE svg PUBLIC "-//W3C//DTD SVG 1.1//EN" "http://www.w3.org/Graphics/SVG/1.1/DTD/svg11.dtd"><svg t="1573526439692" class="icon" viewBox="0 0 1024 1024" version="1.1" xmlns="http://www.w3.org/2000/svg" p-id="2033" xmlns:xlink="http://www.w3.org/1999/xlink" width="48" height="48"><defs><style type="text/css"></style></defs><path d="M457.156433 823.266766a54.858772 54.858772 0 1 0 54.858772-54.858772A54.858772 54.858772 0 0 0 457.156433 823.266766z m54.858772 200.702824C229.672959 1024 0 794.337177 0 512.005068S229.672959 0 512.005068 0s512.005068 229.672959 512.005069 512.005068-229.672959 511.994932-512.005069 511.994932z m0-950.530602C270.198711 73.438988 73.48967 270.158165 73.48967 511.964522s196.698904 438.56608 438.515398 438.566081 438.525534-196.749587 438.525535-438.525535S753.781016 73.469397 512.005068 73.469397z m0 623.32418A36.582651 36.582651 0 0 1 475.402144 660.231199v-61.832688c0-59.805387 45.715643-105.541303 86.089348-145.884598 29.618871-29.639144 60.220984-60.23112 60.220984-84.558735 0-60.960949-49.222874-110.558874-109.717544-110.558874-61.518457 0-109.717544 47.469259-109.717544 108.065293a36.572515 36.572515 0 1 1-73.145029 0c0-99.915542 82.034745-181.210323 182.862573-181.210323S694.857505 266.590115 694.857505 367.955178c0 54.737134-41.508993 96.215718-81.629285 136.336009-31.818493 31.747538-64.660774 64.589818-64.660774 94.097188v61.832688a36.613061 36.613061 0 0 1-36.562378 36.582651z" fill="#1296db" p-id="2034"></path></svg>